<svg xmlns="http://www.w3.org/2000/svg" xmlns:xlink="http://www.w3.org/1999/xlink" width="352" zoomAndPan="magnify" viewBox="0 0 264 48" height="64" preserveAspectRatio="xMidYMid meet" version="1.0"><defs><g/><clipPath id="46dd134546"><path d="M 2.695312 0 L 261.304688 0 L 261.304688 47.019531 L 2.695312 47.019531 Z M 2.695312 0 " clip-rule="nonzero"/></clipPath><clipPath id="23f264f638"><path d="M 150.621094 14.105469 L 159 14.105469 L 159 20 L 150.621094 20 Z M 150.621094 14.105469 " clip-rule="nonzero"/></clipPath><clipPath id="6bab833146"><path d="M 200 14.105469 L 207.925781 14.105469 L 207.925781 20 L 200 20 Z M 200 14.105469 " clip-rule="nonzero"/></clipPath></defs><g clip-path="url(#46dd134546)"><path fill="#ffffff" d="M 2.695312 0 L 261.304688 0 L 261.304688 47.019531 L 2.695312 47.019531 Z M 2.695312 0 " fill-opacity="1" fill-rule="nonzero"/><path fill="#ffffff" d="M 2.695312 0 L 261.304688 0 L 261.304688 47.019531 L 2.695312 47.019531 Z M 2.695312 0 " fill-opacity="1" fill-rule="nonzero"/></g><path fill="#71132d" d="M 203.707031 16.765625 C 200.351562 20.3125 196.535156 22.929688 192.398438 24.671875 C 188.265625 26.410156 183.875 27.257812 179.457031 27.269531 C 175.039062 27.257812 170.640625 26.414062 166.515625 24.671875 C 162.386719 22.925781 158.558594 20.316406 155.207031 16.769531 L 155.207031 16.765625 C 155.074219 16.625 154.925781 16.601562 154.757812 16.703125 C 154.59375 16.804688 154.542969 16.949219 154.605469 17.132812 C 156.277344 21.898438 159.941406 25.996094 164.398438 28.726562 C 168.871094 31.480469 174.179688 32.902344 179.457031 32.910156 C 184.734375 32.914062 190.042969 31.480469 194.519531 28.726562 C 198.976562 25.992188 202.640625 21.898438 204.308594 17.132812 C 204.375 16.949219 204.324219 16.804688 204.15625 16.703125 C 203.992188 16.601562 203.839844 16.625 203.707031 16.765625 Z M 203.707031 16.765625 " fill-opacity="1" fill-rule="nonzero"/><g clip-path="url(#23f264f638)"><path fill="#71132d" d="M 156.777344 15.796875 C 157.109375 15.714844 157.453125 15.660156 157.820312 15.527344 L 157.871094 15.507812 C 158.019531 15.457031 158.101562 15.351562 158.117188 15.191406 C 158.132812 15.035156 158.074219 14.914062 157.9375 14.832031 C 157.589844 14.628906 157.222656 14.46875 156.839844 14.34375 C 156.449219 14.269531 156.050781 14.144531 155.632812 14.15625 C 154.800781 14.105469 153.929688 14.328125 153.152344 14.726562 C 152.359375 15.140625 151.742188 15.734375 151.296875 16.507812 C 150.878906 17.25 150.652344 18.058594 150.75 18.925781 C 150.765625 19.078125 150.847656 19.183594 150.996094 19.234375 C 151.140625 19.285156 151.269531 19.253906 151.378906 19.144531 L 151.429688 19.089844 C 151.929688 18.582031 152.378906 18.09375 152.832031 17.703125 C 153.261719 17.324219 153.726562 16.992188 154.226562 16.714844 C 154.71875 16.464844 155.234375 16.21875 155.835938 16.058594 C 156.128906 15.945312 156.453125 15.902344 156.777344 15.796875 Z M 156.777344 15.796875 " fill-opacity="1" fill-rule="nonzero"/></g><g clip-path="url(#6bab833146)"><path fill="#71132d" d="M 207.578125 16.507812 C 207.132812 15.734375 206.515625 15.140625 205.722656 14.726562 C 204.945312 14.328125 204.074219 14.105469 203.242188 14.15625 C 202.824219 14.144531 202.425781 14.269531 202.035156 14.34375 C 201.652344 14.46875 201.285156 14.632812 200.9375 14.832031 C 200.800781 14.914062 200.742188 15.035156 200.757812 15.191406 C 200.773438 15.351562 200.855469 15.457031 201.003906 15.507812 L 201.054688 15.527344 C 201.421875 15.660156 201.765625 15.714844 202.097656 15.796875 C 202.421875 15.902344 202.742188 15.945312 203.035156 16.058594 C 203.636719 16.21875 204.148438 16.464844 204.644531 16.714844 C 205.144531 16.992188 205.609375 17.324219 206.035156 17.703125 C 206.496094 18.09375 206.941406 18.582031 207.4375 19.089844 L 207.492188 19.144531 C 207.601562 19.253906 207.730469 19.285156 207.875 19.234375 C 208.023438 19.183594 208.105469 19.078125 208.121094 18.925781 C 208.21875 18.058594 208 17.25 207.578125 16.507812 Z M 207.578125 16.507812 " fill-opacity="1" fill-rule="nonzero"/></g><g fill="#71132d" fill-opacity="1"><g transform="translate(52.643728, 34.530613)"><g><path d="M 9.296875 0.296875 C 7.847656 0.296875 6.554688 0.117188 5.421875 -0.234375 C 4.285156 -0.597656 3.335938 -1.070312 2.578125 -1.65625 C 1.828125 -2.238281 1.25 -2.878906 0.84375 -3.578125 L 3.125 -6.359375 L 3.484375 -6.359375 C 4.117188 -5.421875 4.921875 -4.671875 5.890625 -4.109375 C 6.859375 -3.554688 7.992188 -3.28125 9.296875 -3.28125 C 10.410156 -3.28125 11.25 -3.515625 11.8125 -3.984375 C 12.375 -4.453125 12.65625 -5.097656 12.65625 -5.921875 C 12.65625 -6.421875 12.5625 -6.835938 12.375 -7.171875 C 12.195312 -7.503906 11.894531 -7.789062 11.46875 -8.03125 C 11.050781 -8.269531 10.484375 -8.476562 9.765625 -8.65625 L 7.078125 -9.265625 C 5.191406 -9.703125 3.785156 -10.421875 2.859375 -11.421875 C 1.941406 -12.421875 1.484375 -13.71875 1.484375 -15.3125 C 1.484375 -16.5 1.773438 -17.539062 2.359375 -18.4375 C 2.953125 -19.34375 3.816406 -20.039062 4.953125 -20.53125 C 6.085938 -21.03125 7.445312 -21.28125 9.03125 -21.28125 C 10.644531 -21.28125 12.023438 -21.066406 13.171875 -20.640625 C 14.328125 -20.210938 15.304688 -19.5625 16.109375 -18.6875 L 14.046875 -15.875 L 13.6875 -15.875 C 13.09375 -16.5 12.410156 -16.960938 11.640625 -17.265625 C 10.878906 -17.578125 10.007812 -17.734375 9.03125 -17.734375 C 7.882812 -17.734375 7.015625 -17.53125 6.421875 -17.125 C 5.835938 -16.726562 5.546875 -16.175781 5.546875 -15.46875 C 5.546875 -14.8125 5.75 -14.285156 6.15625 -13.890625 C 6.570312 -13.492188 7.296875 -13.1875 8.328125 -12.96875 L 11.078125 -12.40625 C 13.117188 -11.96875 14.597656 -11.234375 15.515625 -10.203125 C 16.429688 -9.179688 16.890625 -7.84375 16.890625 -6.1875 C 16.890625 -4.875 16.609375 -3.734375 16.046875 -2.765625 C 15.484375 -1.796875 14.628906 -1.039062 13.484375 -0.5 C 12.347656 0.03125 10.953125 0.296875 9.296875 0.296875 Z M 9.296875 0.296875 "/></g></g><g transform="translate(70.666686, 34.530613)"><g><path d="M 6.53125 0 L 2.734375 0 L 2.734375 -20.984375 L 8.15625 -20.984375 L 13.46875 -5.546875 L 13.765625 -5.546875 L 19.046875 -20.984375 L 24.34375 -20.984375 L 24.34375 0 L 20.40625 0 L 20.40625 -13.859375 L 20.046875 -13.921875 L 15.203125 0 L 11.734375 0 L 6.890625 -13.921875 L 6.53125 -13.859375 Z M 6.53125 0 "/></g></g><g transform="translate(97.744173, 34.530613)"><g><path d="M 6.875 0 L 2.734375 0 L 2.734375 -20.984375 L 6.875 -20.984375 Z M 6.875 0 "/></g></g><g transform="translate(107.358331, 34.530613)"><g><path d="M 6.875 -20.984375 L 6.875 -3.46875 L 16.296875 -3.46875 L 16.296875 0 L 2.734375 0 L 2.734375 -20.984375 Z M 6.875 -20.984375 "/></g></g><g transform="translate(124.348126, 34.530613)"><g><path d="M 6.875 -9.21875 L 6.875 -3.46875 L 16.890625 -3.46875 L 16.890625 0 L 2.734375 0 L 2.734375 -20.984375 L 16.65625 -20.984375 L 16.65625 -17.515625 L 6.875 -17.515625 L 6.875 -12.59375 L 15.421875 -12.59375 L 15.421875 -9.21875 Z M 6.875 -9.21875 "/></g></g></g></svg>